<svg xmlns="http://www.w3.org/2000/svg" viewBox="0 0 128 128">
  <style>
    .cell { fill: #7c3aed; }
    @media (prefers-color-scheme: dark) {
      .cell { fill: #a78bfa; }
    }
  </style>
  <!-- Top-left finder pattern -->
  <rect class="cell" x="8" y="8" width="40" height="40" rx="4"/>
  <rect x="14" y="14" width="28" height="28" rx="2" fill="#fff"/>
  <rect class="cell" x="20" y="20" width="16" height="16" rx="2"/>
  <!-- Top-right finder pattern -->
  <rect class="cell" x="80" y="8" width="40" height="40" rx="4"/>
  <rect x="86" y="14" width="28" height="28" rx="2" fill="#fff"/>
  <rect class="cell" x="92" y="20" width="16" height="16" rx="2"/>
  <!-- Bottom-left finder pattern -->
  <rect class="cell" x="8" y="80" width="40" height="40" rx="4"/>
  <rect x="14" y="86" width="28" height="28" rx="2" fill="#fff"/>
  <rect class="cell" x="20" y="92" width="16" height="16" rx="2"/>
  <!-- Data dots -->
  <rect class="cell" x="56" y="8" width="12" height="12" rx="2"/>
  <rect class="cell" x="56" y="28" width="12" height="12" rx="2"/>
  <rect class="cell" x="56" y="48" width="12" height="12" rx="2"/>
  <rect class="cell" x="80" y="56" width="12" height="12" rx="2"/>
  <rect class="cell" x="100" y="56" width="12" height="12" rx="2"/>
  <rect class="cell" x="56" y="80" width="12" height="12" rx="2"/>
  <rect class="cell" x="80" y="80" width="12" height="12" rx="2"/>
  <rect class="cell" x="100" y="100" width="12" height="12" rx="2"/>
  <rect class="cell" x="80" y="100" width="12" height="12" rx="2"/>
</svg>
